<?xml version="1.0" encoding="utf-8"?>
<!-- Generator: Adobe Illustrator 28.0.0, SVG Export Plug-In . SVG Version: 6.00 Build 0)  -->
<svg version="1.1" id="Layer_1" xmlns="http://www.w3.org/2000/svg" xmlns:xlink="http://www.w3.org/1999/xlink" x="0px" y="0px"
	 viewBox="0 0 612 792" style="enable-background:new 0 0 612 792;" xml:space="preserve">
<style type="text/css">
	.st0{fill:#CB4055;}
</style>
<path class="st0" d="M205.59,411.5c-0.62,0.08-1.23,0.17-1.85,0.24c-0.26,0.03-0.53-0.43-0.41-0.68c0.17-0.35,0.34-0.7,0.58-1
	c2.58-3.22,5.13-6.47,7.8-9.61c2.07-2.43,4.31-4.72,6.45-7.09c1.19-1.32,2.43-2.6,3.05-4.36c0.37-1.05,1.38-1.67,2.16-2.42
	c0.63-0.61,1.26-1.2,1.41-2.08c0.17-1.06,0.93-1.78,1.39-2.67c2.39-4.65,4.52-9.41,6.71-14.15c0.98-2.12,1.99-4.23,2.94-6.36
	c0.8-1.78,0.49-2.32-1.46-2.59c-0.52-0.07-1.03-0.18-1.61-0.06c-1.9,0.38-3.86,0.28-5.75,0.79c-0.22,0.06-0.46,0.11-0.69,0.12
	c-4.28,0.04-8.54,0.55-12.82,0.37c-0.99-0.04-1.98-0.2-2.98,0c-0.5,0.1-3.1-0.56-3.74-0.88c-0.28-0.14-0.53-0.34-0.86-0.28
	c-0.45,0.09-0.93,0.58-1.32,0.29c-1.28-0.94-3.05-0.69-4.23-1.84c-0.27-0.26-0.64-0.45-0.99-0.6c-3.54-1.49-6.68-3.67-9.83-5.81
	c-1.22-0.83-2.35-1.81-3.42-2.82c-0.7-0.67-1.45-1.16-2.36-1.44c-2.24-0.7-4.31-1.76-6.28-3.04c-0.19-0.13-0.4-0.25-0.56-0.42
	c-0.16-0.17-0.38-0.39-0.37-0.57c0.09-1.4-1.47-2.1-1.37-3.62c0.1-1.54,0.42-3.04,0.55-4.56c0.85-0.76,0.78-1.96,1.32-2.86
	c0.51-0.86,1.08-1.69,1.63-2.53c0.98-1.5,2.15-2.84,3.36-4.15c0.21-0.23,0.41-0.51,0.67-0.64c2.12-0.99,3.65-2.85,5.76-3.86
	c0.55-0.26,1-0.74,1.5-1.11c0.44-0.32,0.84-0.77,1.33-0.93c2.1-0.68,3.78-2.1,5.7-3.09c0.76-0.39,1.51-0.8,2.31-1.11
	c0.95-0.37,1.83-0.85,2.67-1.41c0.52-0.35,1.03-0.68,1.69-0.74c0.37-0.04,0.82-0.12,1.08-0.36c1.6-1.47,3.71-1.91,5.59-2.81
	c2.02-0.97,4.14-1.76,6.27-2.48c3.85-1.31,7.45-3.24,11.31-4.53c2.2-0.73,4.43-1.36,6.66-1.99c1.65-0.46,3.3-0.9,4.96-1.34
	c0.3-0.08,0.61-0.15,0.92-0.17c0.31-0.02,0.64,0.08,0.77,0.39c0.17,0.38-0.13,0.59-0.41,0.71c-1.72,0.73-3.44,1.46-5.18,2.15
	c-0.87,0.35-1.74,0.68-2.46,1.3c-0.89,0.77-2.15,0.72-3.1,1.5c-0.81,0.67-1.82,1.1-2.89,1.44c-1.45,0.47-2.84,1.25-4.12,2.1
	c-0.67,0.45-1.33,0.75-2.06,0.98c-0.59,0.18-1.15,0.35-1.66,0.78c-0.82,0.69-1.96,0.78-2.92,1.3c-2.3,1.25-4.5,2.68-6.87,3.79
	c-0.35,0.16-0.72,0.36-0.96,0.64c-0.43,0.5-0.84,0.89-1.58,0.73c-0.18-0.04-0.51,0.1-0.61,0.25c-0.96,1.58-2.75,1.87-4.17,2.72
	c-0.46,0.28-1.08,0.57-1.25,1c-0.43,1.11-1.39,1.43-2.29,1.83c-1.03,0.45-1.94,0.96-2.35,2.12c-0.12,0.35-0.42,0.67-0.72,0.9
	c-1.5,1.17-1.7,2.91-2.03,4.59c-0.06,0.3-0.06,0.64,0.01,0.93c0.48,1.79,0.98,3.59,1.52,5.36c0.13,0.43,0.44,0.82,0.88,1.06
	c0.68,0.38,1.35,0.77,2,1.18c0.71,0.46,1.56,0.03,2.27,0.36c0.67,0.31,1.04,1.24,2,0.91c1.52,0.55,3.06,1.04,4.55,1.68
	c1.99,0.86,3.92,1.87,5.91,2.74c1.34,0.58,2.7,1.19,4.12,1.48c4.57,0.94,9.19,1.64,13.88,1.61c0.47,0,0.96,0.08,1.4-0.03
	c2.04-0.51,4.12-0.44,6.19-0.59c1.38-0.1,2.75-0.35,4.13-0.5c0.62-0.07,1.15-0.34,1.16-0.94c0.05-2.08,1.2-3.84,1.59-5.82
	c0.3-1.52,0.55-3.05,0.8-4.57c0.25-1.49,0.01-3.06,1.12-4.37c0.43-0.52,0.49-1.28-0.04-1.96c-0.43-0.56-0.3-1.12,0.14-1.7
	c0.74-0.98,0.98-2.12,0.73-3.32c-0.17-0.81,0.18-1.45,0.42-2.19c0.65-2.02,1.6-4.05,1.01-6.28c-0.04-0.15-0.08-0.32-0.05-0.46
	c0.27-0.97,0.77-1.93,0.78-2.9c0.01-0.91-0.2-1.77,0.23-2.69c0.29-0.6,0.29-1.36,0.35-2.05c0.13-1.46-0.08-2.95,0.44-4.36
	c0.05-0.14,0.02-0.31,0.01-0.47c-0.03-1.59-0.48-3.23,0.52-4.7c-0.04-1.08-0.05-2.17-0.15-3.24c-0.1-1.16-0.2-2.31-0.31-3.46
	c-0.19-2.09-0.71-4.14-1.1-6.21c-1.07-1.35-1.06-2.96-1.31-4.57c-0.32-1.98-1.25-3.84-2.16-5.65c-0.21-0.42-0.66-0.54-0.97-0.25
	c-1.19,1.12-2.83,1.61-3.94,2.85c-0.62,0.69-1.27,1.27-2.27,1.52c-1.13,0.29-1.96,1.25-2.81,2.03c-0.75,0.69-1.55,1.28-2.43,1.8
	c-0.93,0.55-1.82,1.18-2.76,1.71c-0.6,0.34-1.24,0.69-1.91,0.85c-1.02,0.25-1.9,0.69-2.62,1.44c-0.45,0.46-0.97,0.75-1.54,1.03
	c-0.49,0.24-1.07,0.45-1.38,0.86c-1.24,1.65-3.24,1.96-4.88,2.9c-1.08,0.62-2.14,1.29-3.24,1.88c-1.06,0.57-1.94,1.57-3.34,1.36
	c-0.23-0.03-0.52,0.29-0.77,0.48c-0.34,0.26-0.67,0.4-1.01,0.02c-0.55-0.61-1.28-0.58-1.96-0.44c-3.01,0.61-5.86,0.02-8.69-0.95
	c-0.43-0.15-0.91-0.17-1.37-0.23c-1.32-0.16-2.63-0.47-3.81-1.04c-1.03-0.49-1.91-0.96-3.05-0.36c-0.52,0.28-1.06-0.06-1.49-0.43
	c-1.03-0.87-1.76-1.97-2.37-3.16c-0.1-0.2-0.03-0.51-0.16-0.67c-0.89-1.17-0.95-2.22,0.28-3.23c0.26-0.21,0.28-0.7,0.43-1.06
	c0.44-1.1,1.04-2.07,2.11-2.67c0.2-0.11,0.46-0.18,0.61-0.33c2.73-2.77,6.52-3.91,9.54-6.23c0.68-0.52,1.41-0.97,2.11-1.46
	c0.19-0.13,0.34-0.4,0.54-0.44c2.36-0.47,4.21-2.01,6.23-3.13c4.96-2.75,10.11-5.18,14.75-8.48c2.86-2.03,5.7-4.08,8.57-6.1
	c0.94-0.66,1.7-1.38,1.4-2.67c0.63-2.61,1.26-5.21,2.57-7.62c0.47-0.85,1.15-1.45,1.71-2.17c1.44-1.84,3.04-3.51,5.25-4.51
	c0.64-0.29,1.24-0.57,1.93-0.72c1.74-0.38,3.47-0.75,5.27-0.6c1.1,0.09,2.25-0.08,3.19-0.59c2.07-1.12,4.22-0.82,6.38-0.58
	c0.77,0.08,1.58,0.2,2.27,0.52c1.36,0.63,2.38,0.18,3.32-0.78c1.47-1.49,3.23-2.69,4.49-4.42c0.32-0.44,0.72-0.84,1.15-1.16
	c2.4-1.73,4.51-3.81,6.83-5.63c5.63-4.43,11.3-8.81,16.86-13.33c1.28-1.04,2.86-1.16,4.18-1.95c0.12-0.07,0.32-0.06,0.46-0.01
	c0.88,0.29,1.78,0.52,2.62,0.91c1.07,0.5,1.25,1.32,0.58,2.28c-0.22,0.32-0.51,0.59-0.76,0.89c-2.29,2.78-3.69,5.87-3.85,9.56
	c-0.13,3.1-0.61,6.18-0.87,9.28c-0.18,2.17-0.17,4.35-0.43,6.52c-0.29,2.41-0.03,4.83,0.45,7.21c0.52,2.58,1.83,4.8,3.62,6.71
	c1.44,1.53,2.94,3.01,4.5,4.42c1.11,1,2.59,1.38,3.95,1.9c2.33,0.89,4.82,1.18,7.26,1.61c1.33-0.39,2.71-0.05,4.09-0.48
	c5.81-1.81,10.87-4.95,15.65-8.59c1.55-1.18,3.14-2.31,4.65-3.54c0.96-0.78,1.94-1.57,2.41-2.8c0.16-0.41,0.57-0.73,0.89-1.07
	c2.61-2.81,5.68-5.09,8.64-7.5c0.15-0.12,0.33-0.11,0.4,0.05c0.05,0.11,0.05,0.31-0.02,0.39c-1.48,1.9-2.85,3.89-4.29,5.8
	c-1.49,1.98-3.38,3.67-5.12,5.45c-2.9,2.96-6.14,5.53-9.48,7.95c-2.39,1.73-5.01,3.14-7.71,4.36c-2.19,0.99-4.48,1.77-6.43,3.23
	c-0.35,0.26-0.94,0.53-1.29,0.41c-1.18-0.41-2.06,0.22-3.07,0.55c-2.53,0.83-5.12,1.3-7.81,0.99c-2.05-0.24-3.93-1.02-5.72-1.95
	c-3.33-1.73-6.44-3.77-8.96-6.64c-0.78-0.89-1.57-1.65-1.74-2.87c-0.04-0.3-0.13-0.66-0.33-0.87c-1.4-1.5-1.22-3.36-1.28-5.17
	c-0.01-0.23,0.03-0.51-0.09-0.67c-0.93-1.25-0.5-2.68-0.6-4.04c-0.02-0.23-0.07-0.52,0.03-0.68c0.85-1.32,0.42-2.71,0.24-4.07
	c-0.05-0.39-0.12-0.74,0.02-1.12c0.1-0.29,0.17-0.63,0.11-0.92c-0.16-0.78-0.16-1.63-0.76-2.27c-0.69,0.31-0.96,0.97-1.37,1.53
	c-1.06,1.45-2.14,2.88-3.26,4.28c-0.51,0.63-0.82,1.27-0.98,2.07c-0.22,1.13-0.45,2.27-0.93,3.35c-0.35,0.79-0.31,1.69-0.23,2.54
	c0.1,1.03-0.06,2.02-0.18,3.03c-0.28,2.32-0.5,4.64-0.82,6.95c-0.5,3.56-0.42,7.15-0.8,10.72c-0.25,2.39-0.41,4.81-0.59,7.22
	c-0.16,2.1-0.32,4.19-0.57,6.28c-0.24,2.09-0.23,4.21-0.49,6.29c-0.29,2.32-0.33,4.64-0.48,6.95c-0.13,2.01-0.3,4.03-0.35,6.05
	c-0.05,1.94,0,3.88,0,5.83c0,1.84,0.08,3.68-0.35,5.52c-0.22,0.94-0.04,2.03,0.15,3.01c0.36,1.84,0.23,3.67,0.16,5.52
	c-0.02,0.68-0.29,1.37,0.07,2.06c0.09,0.18,0.05,0.46,0.01,0.68c-0.51,2.51-0.54,3.46-0.14,5.44c0.04,0.22,0.17,0.5,0.09,0.66
	c-0.79,1.61-0.15,3.56-1.25,5.1c-0.18,0.25-0.08,0.65,0.18,0.84c0.14,0.1,0.46,0.09,0.63,0c3.44-1.82,6.91-3.59,10.28-5.54
	c1.47-0.85,2.84-1.9,4.35-2.7c2.1-1.12,4.4-1.48,6.7-1.89c0.86-0.15,1.54,0.06,2.07,0.74c0.57,0.73,1.2,1.44,1.69,2.23
	c0.47,0.77,0.32,1.71,0.1,2.5c-0.73,2.73-1.85,5.28-3.91,7.31c-1.21,1.19-2.4,2.38-3.89,3.26c-1,0.59-1.98,1.22-2.87,2
	c-1.07,0.93-2.5,1.23-3.74,1.87c-0.48,0.25-0.97,0.45-1.43,0.76c-1.74,1.18-3.59,2.17-5.55,2.94c-0.85,0.33-1.4,0.81-1.55,1.83
	c-0.23,1.59-1.19,3-1.26,4.66c-0.02,0.42-0.41,0.62-0.73,0.85c-0.84,0.6-1.18,1.47-1.06,2.45c0.17,1.33-0.13,2.58-0.41,3.85
	c-0.16,0.75-0.14,1.54-0.16,2.32c-0.01,0.27-0.11,0.67,0.37,0.68c0.36,0.01,0.58-0.23,0.68-0.53c0.31-0.93,0.83-1.64,1.78-2.04
	c0.32-0.14,0.56-0.53,0.79-0.83c0.19-0.24,0.29-0.56,0.48-0.8c0.65-0.82,1.95-0.77,2.35-2.09c0.3-0.98,1.54-1.44,2.39-2.07
	c0.64-0.47,1.23-0.94,1.67-1.6c0.26-0.39,0.54-0.77,0.98-0.97c1.04-0.48,1.79-1.2,2.08-2.35c0.05-0.21,0.21-0.44,0.39-0.56
	c2.04-1.28,3.19-3.39,4.75-5.11c3.36-3.69,6.57-7.51,9.85-11.27c1.59-1.82,3.21-3.61,4.81-5.42c0.93-1.05,1.7-2.18,2.29-3.49
	c0.98-2.2,2.15-4.33,3.29-6.46c0.88-1.62,1.15-3.39,1.3-5.17c0.07-0.8-0.41-1.46-0.86-2.1c-0.52-0.73-0.46-0.99,0.28-1.37
	c0.41-0.21,0.84-0.41,1.27-0.58c2.23-0.87,4.09-2.13,5.1-4.44c0.43-0.99,1.4-1.69,1.56-2.84c1.34-1.2,1.95-3.21,3.97-3.65
	c0.6-0.13,1.25-0.28,1.84-0.19c1.5,0.23,2.74-0.32,3.97-1.03c0.54-0.31,1.06-0.67,1.63-0.92c0.78-0.33,1.54-0.73,2.47-0.4
	c0.41,0.14,0.92,0.02,1.38-0.03c1.03-0.1,1.79,0.38,2.5,1.03c0.65,0.6,0.55,1.34,0.62,2.13c0.22,2.48-0.69,4.74-1.2,7.08
	c-0.84,3.89-2.97,6.94-6.35,9.08c-0.68,0.43-1.23,0.92-1.64,1.62c-0.52,0.87-1.12,1.69-1.66,2.55c-0.2,0.32-0.41,0.68-0.49,1.04
	c-0.36,1.56,0.57,2.71,2.12,2.44c0.78-0.13,1.62-0.29,2.34-0.91c1.64-1.4,3.42-2.64,4.81-4.33c0.53-0.65,1.1-1.31,1.99-1.58
	c0.26-0.08,0.5-0.36,0.67-0.61c0.7-1.03,1.36-2.07,2.04-3.11c0.89-1.37,1.76-2.76,2.67-4.11c1.83-2.7,3.29-5.6,4.67-8.55
	c0.92-1.98,1.87-3.95,2.49-6.03c0.46-1.56,1.02-3.08,1.68-4.56c1.04-2.34,2.24-4.58,3.96-6.53c0.49-0.55,1.04-0.93,1.64-1.26
	c1.99-1.08,3.81,0.05,3.72,2.36c-0.05,1.24-0.42,2.45-0.95,3.57c-1.68,3.57-2.89,7.38-5.33,10.57c-0.14,0.18-0.27,0.4-0.3,0.62
	c-0.29,1.98-1.57,3.5-2.38,5.23c-0.97,2.1-2.3,4.03-3,6.26c-0.16,0.52-0.33,1.05-0.37,1.58c-0.29,3.95-0.83,7.89-0.75,11.87
	c0.04,2.08,0.65,3.99,1.5,5.83c0.84,1.82,2.31,3.05,4.31,3.2c3.17,0.24,6.39,0.47,9.45-0.76c2.53-1.02,4.94-2.27,7.26-3.7
	c3.09-1.9,5.76-4.3,8.07-7.04c1.45-1.71,2.98-3.37,4.36-5.13c0.43-0.55,0.75-1.18,1.09-1.79c0.11-0.2,0.08-0.46-0.14-0.61
	c-0.12-0.08-0.34-0.18-0.41-0.13c-0.89,0.6-1.95,0.38-2.91,0.63c-0.52,0.13-1.11,0.11-1.44,0.65c-0.29,0.48-0.69,0.57-1.19,0.38
	c-0.35-0.14-0.58,0.15-0.82,0.32c-1.14,0.81-2.3,1.59-3.39,2.47c-1.05,0.84-2.21,1.45-3.43,1.97c-0.28,0.12-0.7-0.2-0.6-0.48
	c0.37-1.1,0.19-2.32,0.91-3.35c0.54-0.76,0.7-1.71,0.75-2.65c0.12-0.08,0.54-0.07,0.11-0.3c-0.1-0.05-0.19,0.18-0.07,0.33
	c-0.14-0.05-0.33-0.19-0.42-0.15c-1.24,0.64-2.52,1.23-3.69,1.97c-0.98,0.63-1.89,1.37-3.01,1.75c-0.39,0.13-0.7,0.82-1.15,0.34
	c-0.26-0.28,0.18-0.69,0.3-1.04c0.45-1.3,1.3-2.35,2.38-3.12c1.67-1.19,2.79-2.9,4.3-4.25c1.22-1.09,1.51-2.68,1.15-4.31
	c-0.17-0.76-0.25-1.55-0.52-2.27c-0.27-0.73-0.26-1.43,0.14-2.01c0.82-1.17,0.89-2.62,1.63-3.81c0.16-0.26,0.29-0.57,0.32-0.87
	c0.15-1.46,0.35-2.93,0.36-4.4c0.03-2.57,0.17-5.12,0.53-7.68c0.21-1.53,0.16-3.11,0.09-4.66c-0.12-2.58,0.1-5.14,0.49-7.68
	c0.28-1.85,0.59-3.69,0.87-5.53c0.2-1.32,0.57-2.58,1.04-3.82c0.08-0.2,0.24-0.51,0.38-0.52c0.52-0.05,0.23,0.41,0.3,0.63
	c0.35,1.13,0.43,2.29,0.36,3.47c-0.16,2.44,0.32,4.82,0.84,7.18c0.17,0.77,0.3,1.52,0.3,2.3c0,6.31-0.03,12.62,0,18.92
	c0.01,1.39-0.4,2.78,0.08,4.17c0.15,0.45-0.14,0.9-0.47,1.26c-0.36,0.41-0.82,0.78-1.02,1.26c-0.47,1.13-1.01,2.24-0.48,3.57
	c0.36,0.91,0.23,0.95,1.26,1.94c0.33,0.31,0.51,0.77,0.76,1.16c0.28,0.45,0.61,0.67,1.15,0.4c1.51-0.76,3.22-1.07,4.64-2.01
	c0.92-0.61,1.87-1.1,3.02-0.99c0.15,0.01,0.31-0.02,0.46-0.07c2.64-1.02,3.07-0.95,5.39-0.63c1.84,0.26,3.02,1.51,4.42,2.45
	c0.28,0.19,0.39,0.65,0.54,1c0.19,0.42,0.22,1.03,0.54,1.26c1.03,0.76,0.89,1.73,0.72,2.75c-0.29,1.74-0.29,3.58-1.82,4.87
	c-0.27,0.23-0.32,0.7-0.54,1.02c-0.63,0.93-1,2.19-2.49,2.15c-0.19,0-0.42,0.21-0.57,0.38c-1.8,1.97-4.25,3.14-6.17,4.96
	c-1.47,1.4-3.12,2.58-4.79,3.73c-3.42,2.35-7.03,4.33-10.94,5.74c-0.51,0.18-1,0.44-1.48,0.68c-2.76,1.34-5.66,2.07-8.72,2.46
	c-2.97,0.38-5.89-0.05-8.83-0.12c-1.36-0.03-2.53-0.77-3.65-1.47c-1.58-0.99-3.06-2.16-5.04-2.29c-0.62-0.04-0.97-0.61-0.96-1.17
	c0.06-2.08-1.77-2.76-2.89-3.94c-0.35-0.37-1.01-0.43-1.46,0.12c-0.05,0.06-0.11,0.12-0.14,0.18c-0.49,0.94-2.03,0.57-2.27,1.82
	c-0.2,1.06-0.96,1.75-1.62,2.52c-0.23,0.27-0.2,0.74-0.35,1.08c-0.35,0.78-0.66,1.59-1.14,2.28c-0.41,0.59-1.53,0.13-1.82,1.16
	c-0.26,0.92-1.29,1.05-1.99,1.51c-0.65,0.42-1.31,0.84-2.01,1.18c-1.19,0.58-2.44,0.47-3.66,0.11c-0.54-0.16-1.01-0.29-1.57-0.09
	c-1.03,0.36-1.95,0.23-2.73-0.68c-0.59-0.68-1.41-0.52-2.17-0.2c-1.15,0.48-2.29,0.98-3.45,1.43c-0.73,0.28-0.92,0.19-1.29-0.52
	c-0.25-0.48-0.44-0.99-0.65-1.5c-0.25-0.62-0.65-0.92-1.34-1.13c-1.91-0.57-1.62-0.76-3.22,0.81c-0.94,0.92-2.07,1.69-2.87,2.72
	c-1.29,1.65-2.97,2.87-4.42,4.33c-0.65,0.65-1.21,1.44-2.2,1.68c-0.2,0.05-0.41,0.25-0.53,0.44c-1.17,1.88-3.06,3.09-4.39,4.82
	c-0.28,0.36-0.68,0.62-1.05,0.91c-0.18,0.14-0.51,0.19-0.59,0.36c-0.83,1.77-2.66,2.58-3.84,4.02c-1.18,1.44-2.49,2.76-3.78,4.11
	c-0.91,0.96-1.84,1.9-2.82,2.79c-4.15,3.79-7.63,8.18-11.34,12.38c-1.19,1.34-2.04,2.9-3.09,4.32c-1.66,2.27-2.85,4.8-4.25,7.21
	c-1.32,2.27-2.7,4.55-4.7,6.33c-0.76,0.67-1.52,1.36-2.63,1.37c-0.75,0.01-1.28,0.56-1.93,0.77c-1.76,0.56-2.74,0.12-3.44-1.04
	c-0.3-0.5-0.27-1.05-0.28-1.59c-0.02-1.76,0.71-3.34,1.23-4.96c0.31-0.96,0.77-1.88,1.26-2.76c0.59-1.05,0.94-2.14,0.95-3.33
	c0.04-4.14,0.76-8.21,1.42-12.27c0.59-3.62,0.86-7.27,1.28-10.9c0.17-1.47,0.16-2.96,0.19-4.44c0-0.18-0.16-0.49-0.31-0.53
	c-0.17-0.05-0.47,0.07-0.6,0.21c-0.26,0.28-0.48,0.61-0.66,0.95c-2.66,5.04-5.81,9.78-9.08,14.43c-4.08,5.79-8.32,11.47-12.33,17.3
	c-3.36,4.89-6.93,9.62-10.75,14.14c-2.87,3.39-5.86,6.68-8.62,10.16c-0.53,0.67-1.25,1.17-1.64,1.96c-0.13,0.26-0.37,0.52-0.63,0.64
	c-1.52,0.71-2.78,1.86-3.78,3.09c-1.28,1.58-2.81,2.83-4.26,4.2c-1.01,0.95-1.97,1.95-2.94,2.95c-0.68,0.7-1.46,1.25-2.24,1.59
	c-1.37,0.59-2.28,1.62-3.05,2.71c-0.81,1.15-1.84,2.11-2.63,3.27c-0.26,0.38-3.5,2.54-4.25,2.73c-0.74,0.19-1.36,0.61-1.71,1.15
	c-0.69,1.06-1.94,1.56-2.49,2.72c-0.09,0.18-0.34,0.4-0.53,0.41c-1.29,0.1-2.11,1.03-2.94,1.79c-1.07,0.98-2.51,1.11-3.64,1.96
	c-0.84,0.64-1.5,1.54-2.54,1.93c-0.68,0.26-1.5,0.27-1.79,1.18c-0.07,0.23-0.47,0.45-0.74,0.5c-0.9,0.16-1.58,0.58-2.04,1.39
	c-0.2,0.35-0.59,0.52-0.99,0.55c-0.69,0.07-1.04,0.63-1.55,0.95c-1.31,0.84-1.78,1.98-1.83,3.54c-0.16,4.35-0.47,8.69-0.72,13.04
	c-0.08,1.32-0.25,2.65-0.23,3.97c0.09,5.93-0.8,11.81-0.7,17.75c0.04,2.56-0.34,5.13-0.83,7.65c-0.02,0.09-0.22,0.23-0.31,0.21
	c-0.12-0.02-0.29-0.17-0.3-0.28c-0.18-1.86-0.39-3.72-0.48-5.58c-0.24-4.67-0.59-9.33-0.62-14.01c-0.02-2.79-0.29-5.58-0.84-8.35
	c-0.63-3.2-1.14-6.44-1.05-9.74c0.03-1.01-0.07-2.03-0.18-3.03c-0.1-0.96-0.57-1.23-1.15-0.59c-0.78,0.84-2.18,0.43-2.74,1.54
	c-0.03,0.05-0.14,0.08-0.21,0.08c-2.52-0.29-4.45,1.67-6.86,1.81c-0.98,1.07-2.5,0.62-3.62,1.28c-2.23-0.02-4.41,0.49-6.61,0.61
	c-1.62,0.09-3.13-0.71-4.69-1.04c-1.63-0.35-2.7-1.31-3.89-2.25c-2.03-1.59-2.66-3.94-3.47-6.2c-0.03-0.07-0.07-0.16-0.05-0.22
	c0.68-2.26-0.24-4.48-0.18-6.73c0.07-2.73,0.44-5.42,1.07-8.08c1.14-4.85,3.08-9.4,5.31-13.82c1.2-2.37,2.77-4.53,4.97-6.11
	c1.47-1.06,2.75-2.34,3.89-3.7c1.82-2.18,4.02-3.9,6.21-5.63c2.68-2.12,5.39-4.21,8.08-6.32c0.42-0.33,0.9-0.69,1.14-1.15
	c1.07-2.04,2.94-3.25,4.83-4.26c1.71-0.91,3.74-1.13,5.7-0.75c1.28,0.25,2.61,0.36,3.73,1.23c1.52,1.18,1.79,2.5,0.58,4
	c-0.53,0.67-1.14,1.3-1.8,1.84c-0.9,0.74-1.37,1.67-1.57,2.77c-0.19,0.99-0.5,1.96-0.48,2.99c0.01,0.53-0.11,1.09-0.28,1.6
	c-0.67,1.94-0.79,3.96-0.8,5.98c-0.01,2.03,0.01,4.06-0.02,6.09c-0.02,1.4,0.01,2.79-0.22,4.19c-0.18,1.12-0.03,2.31,0.08,3.48
	c0.11,1.12-0.27,2.27-0.06,3.46c0.19,1.12,0.18,2.29,0.12,3.43c-0.07,1.24-0.35,2.44,0,3.7c0.15,0.54-0.2,1.2-0.27,1.82
	c-0.03,0.3,0.03,0.68,0.32,0.82c0.33,0.15,0.78,0.36,1.08,0.03c1-1.08,2.75-1.15,3.47-2.6c0.03-0.06,0.11-0.13,0.17-0.15
	c1.41-0.53,2.44-1.54,3.55-2.51c0.64-0.56,1.24-1.13,1.85-1.71c1.15-1.09,2.03-2.58,3.8-2.9c0.24-0.04,0.4-0.45,0.63-0.65
	c2.01-1.81,3.78-3.88,6.08-5.35c0.28-0.18,0.51-0.39,0.54-0.71c0.08-0.9,0.67-1.21,1.44-1.18c0.63,0.03,1.15-0.17,1.36-0.69
	c0.36-0.88,1.36-1.14,1.73-2.11c0.3-0.78,1.42-1.2,1.94-1.94c1.09-1.55,2.7-2.53,3.98-3.88c1.01-1.07,2.25-1.94,3-3.25
	c0.2-0.15,0.35-0.33,0.32-0.61c0.25-0.1,0.43-0.21,0.11-0.44c-0.01-0.01-0.17,0.2-0.26,0.3
	C205.88,411.11,205.71,411.26,205.59,411.5z M142.16,454.34C142.16,454.34,142.16,454.34,142.16,454.34c0.7,0.01,1.4,0.03,2.09,0
	c0.69-0.03,1.47,0.05,2.06-0.23c1.57-0.73,3.18-1.22,4.89-1.45c0.52-0.07,1.04-0.32,1.53-0.53c1.62-0.72,3.39-1.16,4.78-2.35
	c1.48-0.21,2.63-1.25,4.05-1.64c1.93-0.52,2.93-1.88,3.05-3.83c0.27-4.35,0.63-8.7,0.8-13.06c0.17-4.43,0.48-8.85,0.83-13.28
	c0.12-1.47,0.02-2.96,0.05-4.45c0.02-1.06-0.45-1.86-1.4-2.19c-1.07-0.37-1.58-1.17-2.12-2.04c-0.95-1.51-0.65-1.74-2.32-0.44
	c-0.12,0.1-0.23,0.21-0.37,0.29c-3.01,1.78-5.21,4.27-7.21,7.15c-2.84,4.09-5.8,8.1-8.67,12.17c-2.74,3.88-5.26,7.91-7.46,12.13
	c-1.16,2.22-1.12,4.65-1.53,7c-0.03,0.14,0.03,0.31,0.07,0.46c0.31,1.27,0.6,2.55,0.95,3.8c0.1,0.35,0.37,0.68,0.63,0.95
	c1.31,1.33,1.52,1.42,3.46,1.53C140.92,454.37,141.54,454.34,142.16,454.34z M223.88,355.66c-1.66-0.28-3.51-0.52-5.33-0.9
	c-4.25-0.89-8.49-1.86-12.73-2.79c-2.2-0.48-4.41-0.95-6.75-1.46c0.3,0.25,0.46,0.45,0.66,0.55c5.17,2.62,10.67,4.26,16.31,5.48
	c0.81,0.18,1.73,0.14,2.55-0.02C220.4,356.18,222.31,356.48,223.88,355.66z M298.32,329.15c0.06-0.44-0.41-0.9-0.92-0.81
	c-1.23,0.22-2.41,0.53-3.38,1.41c-0.92,0.84-1.89,1.62-2.84,2.43c-0.59,0.5-1.19,1-1.76,1.52c-0.08,0.07-0.11,0.34-0.06,0.38
	c0.11,0.08,0.28,0.09,0.43,0.09c0.15,0,0.34,0,0.45-0.08c1.36-0.96,3-1.19,4.52-1.65c1.61-0.48,2.64-1.47,3.44-2.84
	C298.28,329.47,298.29,329.3,298.32,329.15z M269.61,326.65c-0.19,0.73-0.41,1.46-0.57,2.2c-0.25,1.13-0.33,2.32-0.7,3.41
	c-0.62,1.85-0.85,3.78-1.36,5.65c-0.12,0.44-0.13,0.92-0.17,1.38c-0.02,0.31-0.03,0.66,0.29,0.82c0.37,0.18,0.56-0.13,0.72-0.39
	c0.49-0.78,0.96-1.51,1.03-2.53c0.13-1.93,0.58-3.84,0.77-5.77C269.77,329.85,270.07,328.28,269.61,326.65z M288.33,334.47
	c-0.14,0.19-0.27,0.37-0.39,0.54c0,0.01,0.1,0.12,0.16,0.12c0.26,0.02,0.39-0.14,0.41-0.38
	C288.51,334.7,288.43,334.64,288.33,334.47z"/>
<path class="st0" d="M342.32,533.71c-0.28,0.12-0.64,0.16-0.84,0.36c-2.35,2.25-5.02,4.17-7.05,6.75c-0.34,0.44-0.76,0.77-1.2,1.09
	c-0.62,0.46-1.2,0.98-1.79,1.5c-1.51,1.33-2.73,2.98-4.55,3.95c-0.55,0.29-0.94,0.76-1.21,1.38c-0.53,1.19-1.35,2.05-2.81,2
	c-0.22-0.01-0.5,0.03-0.67,0.15c-1.53,1.13-3.43,0.75-5.11,1.26c-0.67,0.2-1.38,0.08-2.05-0.23c-0.78-0.35-1.58-0.65-2.36-0.99
	c-0.39-0.17-0.63-0.51-0.43-0.94c0.24-0.53,0.33-1.09,0.18-1.6c-0.52-1.74,0.03-3.35,0.49-4.98c0.41-1.49,0.68-3.02,1.33-4.44
	c0.04-0.09-0.03-0.31-0.11-0.37c-0.1-0.07-0.32-0.09-0.41-0.03c-0.79,0.53-1.38,1.22-1.83,2.08c-0.91,1.72-1.88,3.4-2.82,5.1
	c-0.34,0.62-0.72,1.11-1.47,1.37c-1.14,0.39-1.54,1.8-2.6,2.28c-0.99,0.45-1.94,0.96-2.85,1.54c-0.26,0.16-0.49,0.41-0.64,0.67
	c-0.49,0.86-1.22,1.13-2.17,1.02c-0.99-0.12-1.83,0.39-2.61,0.86c-1.81,1.08-3.66,1.19-5.6,0.45c-0.36-0.14-0.73-0.32-1.11-0.35
	c-2.94-0.2-5.23-1.74-7.41-3.53c-0.24-0.2-0.47-0.41-0.7-0.62c-0.41-0.38-0.81-0.42-1.2,0.01c-0.37,0.4-0.72,0.82-1.11,1.2
	c-0.78,0.76-1.47,1.81-2.41,2.17c-1.06,0.4-1.5,1.49-2.64,1.77c-1,0.25-1.84,1.18-2.84,1.41c-1.05,0.24-1.65,1.13-2.65,1.37
	c-0.89,0.21-1.77,0.52-2.65,0.8c-1.66,0.52-3.41,0.86-5.19,0.18c-2.34-0.89-3.5-2.71-4.27-4.92c-0.13-0.38-0.03-0.76,0.12-1.14
	c0.14-0.36,0.31-0.73,0.35-1.11c0.21-1.91-0.25-2.26-1.98-1.46c-0.99,0.46-1.94,0.99-2.9,1.5c-0.82,0.44-1.6,0.96-2.59,0.96
	c-0.29,0-0.59,0.18-0.87,0.32c-1.52,0.82-3.15,1.35-4.78,1.85c-1.07,0.32-2,0.8-2.79,1.62c-0.59,0.61-1.28,1.13-1.94,1.68
	c-0.18,0.15-0.37,0.35-0.58,0.38c-2.47,0.27-4.03,2.21-6.06,3.28c-0.54,0.29-1,0.63-1.65,0.76c-0.83,0.16-1.66,0.45-2.14,1.28
	c-0.3,0.52-0.87,0.64-1.38,0.79c-1.14,0.33-2.12,0.94-3.08,1.63c-1.71,1.22-3.48,2.36-5.43,3.17c-0.37,0.15-0.72,0.28-1,0.57
	c-1.86,1.99-4.5,2.7-6.75,4.05c-0.37,0.22-0.77,0.23-1.11,0.02c-1.19-0.71-2.52-1.27-3.25-2.57c-0.19-0.33-0.49-0.69-0.49-1.03
	c0.01-0.93-0.48-1.64-0.92-2.36c-0.42-0.69-0.37-1.29,0.11-1.92c0.93-1.23,1.17-2.9,2.49-3.89c0.16-0.12,0.26-0.4,0.29-0.62
	c0.09-0.62,0.44-0.91,1.02-1.12c1.22-0.44,2.04-1.31,2.6-2.51c0.63-1.33,1.38-2.61,2.45-3.65c0.35-0.34,0.54-0.73,0.6-1.23
	c0.15-1.22,1.08-2.26,0.78-3.6c-0.05-0.23,0.21-0.56,0.39-0.8c0.24-0.32,0.44-0.64,0.47-1.05c0.13-1.43,0.76-2.68,1.45-3.91
	c0.38-0.69,0.48-1.41,0.49-2.22c0.04-1.93-0.03-3.86,0.38-5.79c0.28-1.34,0.03-2.8,0.07-4.2c0.03-1.17,0.09-2.34,0.22-3.5
	c0.12-1.09,0.23-2.14-0.12-3.23c-0.21-0.64-0.19-1.42-0.05-2.08c0.3-1.4-0.02-2.79,0.06-4.18c0.03-0.56-0.29-0.93-0.77-1.02
	c-1.71-0.33-3.16-1.23-4.64-2.06c-0.75-0.42-1.51-0.83-2.08-1.5c-0.23-0.27-0.67-0.51-0.26-0.96c0.3-0.33,0.52-0.77,1.13-0.48
	c1.19,0.57,2.41,1.08,3.62,1.6c0.21,0.09,0.45,0.12,0.67,0.21c0.5,0.2,1,0.52,1.55,0.24c0.43-0.22,0.87-1.55,0.57-2.13
	c-0.89-1.75-0.74-3.61-0.8-5.46c-0.03-0.77-0.26-1.52-0.38-2.28c-0.3-1.83-0.63-3.66-0.9-5.5c-0.3-2.1-1.01-4-2.41-5.64
	c-0.49-0.58-0.76-1.35-1.11-2.04c-0.17-0.35-0.22-0.8-0.47-1.05c-0.63-0.61-1.03-1.26-1.29-2.14c-0.23-0.78-0.79-1.44-0.99-2.31
	c-0.24-1.05-0.84-2-1.51-2.86c-0.88-1.12-1.49-2.32-1.83-3.73c-0.33-1.35-0.95-2.63-1.35-3.96c-0.68-2.22-1.82-4.23-2.69-6.36
	c-0.46-1.13-0.8-2.3-1.39-3.4c-0.75-1.39,0.03-3.15,1.61-4.1c0.2-0.12,0.42-0.22,0.63-0.3c0.72-0.27,1.64-0.34,2.13-0.84
	c0.48-0.49,0.5-1.42,0.77-2.13c0.11-0.28,0.31-0.54,0.53-0.76c0.6-0.61,1.13-1.48,1.86-1.71c1.21-0.37,2.18-1.16,3.35-1.54
	c0.14-0.05,0.31-0.03,0.47-0.04c0.73-0.07,1-1.15,1.79-0.92c0.59,0.17,1.18,0.31,1.78,0.45c1.12,0.26,2.19,0.01,3.21-0.3
	c1.02-0.31,1.83-0.1,2.62,0.49c0.43,0.33,0.92,0.64,1.23,1.07c0.74,1.02,1.67,1.84,2.58,2.68c0.46,0.42,0.97,0.81,1.1,1.47
	c0.19,0.97,1.47,0.85,1.73,1.78c0.21,0.74,0.35,1.65,0.85,2.13c1.12,1.05,1.8,2.57,3.32,3.19c0.6,0.24,0.82,0.74,0.69,1.33
	c-0.37,1.64,0.18,3.05,1.02,4.38c0.33,0.52,0.41,1,0.17,1.53c-0.24,0.52-0.31,1.08-0.1,1.6c0.82,2.06,0.43,4.31,1.02,6.42
	c0.56,2.02,1,4.08,1.33,6.15c0.42,2.61,0.71,5.24,0.98,7.87c0.13,1.32,0,2.66-0.34,3.95c-0.3,1.13-0.73,2.22-0.46,3.43
	c0.05,0.2-0.03,0.49-0.15,0.67c-0.71,1.02-0.67,2.21-0.85,3.35c-0.34,2.16-0.77,4.29-1.48,6.36c-0.17,0.5,0.08,0.73,0.53,0.79
	c0.79,0.1,1.53-0.12,2.29-0.34c1.6-0.45,3.15-0.26,4.29,1.02c1.01,1.13,2.31,1.28,3.59,1.23c3.51-0.13,6.92-0.87,10.32-1.75
	c2.26-0.59,4.42-1.46,6.43-2.55c2.24-1.21,4.18-2.91,6.17-4.53c1.77-1.43,2.81-3.52,4.74-4.74c0.31-0.2,0.52-0.57,0.74-0.89
	c1.58-2.22,3.13-4.44,4.72-6.65c0.37-0.51,0.54-0.96,0.6-1.64c0.07-0.86,0.7-1.68,1.12-2.49c0.26-0.51,0.12-0.89-0.27-1.24
	c-0.17-0.16-0.31-0.42-0.51-0.47c-1.68-0.45-2.55-1.99-3.89-2.86c-1.96-1.27-2.72-3.3-3.63-5.24c-0.47-1-0.38-2.02,0.01-3.15
	c0.67-1.95,1.03-4.01,1.49-6.03c0.22-1,0.48-1.86,1.52-2.44c1.38-0.77,1.38-2.29,1.56-3.66c0.04-0.3-0.11-0.61-0.12-0.92
	c-0.02-1.03,0.85-1.91,1.79-1.59c0.86,0.3,1.55,0.29,2.41,0.02c1.27-0.4,2.26,0.42,3,1.35c1.31,1.64,2.62,3.27,4.33,4.52
	c0.4,0.29,0.63,0.71,0.76,1.15c0.24,0.85,0.98,1.17,1.61,1.61c0.2,0.14,0.48,0.16,0.62-0.02c0.13-0.16,0.2-0.44,0.16-0.64
	c-0.21-1.08-0.72-2.05-1.24-3c-0.15-0.27-0.42-0.48-0.52-0.77c-0.16-0.48-0.02-0.92,0.42-1.23c0.37-0.26,0.72-0.24,1.07,0.03
	c1.47,1.13,2.42,2.63,3.02,4.36c0.44,1.26,0.93,2.48,1.6,3.63c0.93,1.6,1.17,3.34,1.06,5.15c-0.01,0.21-0.01,0.59,0.07,0.62
	c1.14,0.37,1.39,1.97,2.77,1.99c0.14,0,0.38,0.09,0.41,0.18c0.33,1.25,1.49,1.1,2.35,1.52c0.94,0.47,1.81,0.82,2.87,0.71
	c0.57-0.06,1.09,0.31,1.42,0.72c0.53,0.68,1.2,0.91,2,1.01c0.37,0.05,0.71,0.29,1.07,0.42c1.45,0.53,2.88,1.13,4.49,0.95
	c0.39-0.04,0.79-0.08,1.17,0c3.4,0.73,6.81,0.32,10.22,0.1c1.52,0.47,3,0.12,4.48-0.18c0.53-0.11,0.93,0.06,1.28,0.37
	c0.47,0.42,0.96,0.74,1.58,0.94c0.51,0.17,0.65,0.63,0.29,1.13c-0.18,0.25-0.49,0.51-0.49,0.77c-0.02,2.42-2.05,3.73-3.04,5.61
	c-0.13,0.25-0.44,0.49-0.71,0.58c-1.47,0.46-2.94,1.09-4.44,1.23c-1.49,0.13-2.91,0.49-4.36,0.76c-0.61,0.11-1.22,0.34-1.83,0.35
	c-2.87,0.06-5.7,0.52-8.55,0.76c-0.39,0.03-0.79,0.05-1.17-0.02c-2.04-0.4-4.14-0.4-6.13-1.04c-0.66-0.21-1.34-0.38-2.03-0.48
	c-1.25-0.19-2.37-0.69-3.52-1.19c-2.06-0.89-4.17-1.66-6.27-2.45c-0.43-0.16-0.91-0.22-1.37-0.25c-0.52-0.03-0.89,0.23-0.99,0.78
	c-0.32,1.69-1.27,2.85-2.8,3.67c-0.81,0.43-1.5,1.06-1.79,2.06c-0.23,0.78-0.85,1.36-1.67,1.48c-0.85,0.13-1.49,0.55-1.92,1.21
	c-1.1,1.69-2.75,2.74-4.42,3.64c-2.35,1.25-4.4,2.88-6.46,4.5c-1.1,0.86-2.28,1.58-3.41,2.39c-1.44,1.04-3.15,1.69-4.97,1.87
	c-2.31,0.23-4.52,1.13-6.88,0.95c-0.15-0.01-0.3,0.07-0.45,0.13c-1.62,0.62-3.3,0.85-5.03,0.72c-0.87-0.07-1.73,0.09-2.45,0.63
	c-0.91,0.68-2.26,0.66-2.85,1.85c-0.08,0.16-0.39,0.26-0.62,0.3c-1.98,0.36-3.97,0.71-5.96,1.04c-0.7,0.12-1.37-0.01-2.05-0.28
	c-0.78-0.31-1.15-0.1-1.34,0.74c-0.33,1.44-0.67,2.88-0.83,4.35c-0.41,3.65-1.25,7.18-2.36,10.67c-0.75,2.36-1.35,4.76-1.99,7.16
	c-0.05,0.18,0.04,0.52,0.18,0.6c0.13,0.08,0.46,0,0.61-0.12c0.6-0.5,1.12-1.12,2.02-0.95c1.2-1.24,2.84-1.45,4.38-1.92
	c0.15-0.04,0.29-0.13,0.41-0.22c1.93-1.64,4.33-2.01,6.68-2.43c1.11-0.2,2.04-0.57,2.83-1.34c0.46-0.45,0.91-0.79,1.64-0.62
	c0.79,0.19,1.52-0.18,2.23-0.51c0.64-0.29,1.27-0.73,1.98-0.65c2,0.23,3.82-0.74,5.77-0.77c0.23,0,0.53-0.02,0.66-0.16
	c0.93-0.98,2.11-0.82,3.27-0.81c1.16,0.01,2.04-0.27,2.53-1.57c0.54-1.43,1.44-2.74,2.48-3.88c0.95-1.04,1.2-2.51,2.36-3.43
	c0.47-0.38,0.87-0.89,1.4-1.21c1.4-0.84,2.59-1.87,3.42-3.29c0.08-0.13,0.18-0.32,0.3-0.34c1.23-0.27,2.04-1.03,2.61-2.12
	c0.23-0.44,0.75-0.5,1.24-0.51c1.09-0.01,2.14,0.03,3.01-0.9c0.44-0.47,1.19-0.14,1.8-0.11c0.33,0.02,0.63-0.09,0.69-0.47
	c0.08-0.5,0.28-0.91,0.8-1.04c0.95-0.23,1.81-0.96,2.88-0.59c0.72,0.24,1.53,0.18,2.01-0.24c1.01-0.87,2.19-0.71,3.1-0.36
	c1.97,0.75,4.03,1.06,6.03,1.65c0.99,0.29,1.98,0.53,2.17,1.78c0.01,0.07,0.07,0.14,0.13,0.19c0.48,0.49,1.22,0.81,1.17,1.64
	c-0.06,1.03-0.53,1.94-0.89,2.88c-0.03,0.07-0.09,0.13-0.14,0.19c-1.26,1.36-2.23,2.85-2.9,4.63c-0.63,1.67-1.25,3.35-1.89,5.02
	c-0.44,1.16-0.77,2.37-1.52,3.39c-0.09,0.13-0.22,0.25-0.24,0.4c-0.27,1.7-1.23,3.17-1.63,4.82c-0.05,0.22-0.17,0.47-0.11,0.66
	c0.35,1.2-0.11,2.33-0.41,3.42c-0.24,0.89-0.03,1.56,0.53,2.13c0.86,0.88,1.7,1.83,3.15,1.73c0.47-0.03,0.89-0.06,1.35-0.22
	c2.17-0.76,3.83-2.37,5.81-3.43c0.13-0.07,0.22-0.22,0.31-0.34c1.2-1.72,2.43-3.43,3.57-5.19c1.01-1.57,1.82-3.27,2.91-4.77
	c0.62-0.85,0.63-1.88,1.25-2.73c0.78-1.05,1.38-2.23,2.1-3.33c0.62-0.95,0.99-2.06,1.39-3.14c0.57-1.54,1.55-2.84,2.35-4.24
	c1-1.76,2.68-3.03,3.38-4.97c0.99-0.74,1.7-1.85,2.84-2.36c1.77-0.79,3.57-1.49,5.38-2.17c0.48-0.18,1.08-0.44,1.54,0.05
	c0.48,0.52,0.3,1.18,0.18,1.78c-0.06,0.29-0.27,0.56-0.42,0.83c-1.52,2.89-3.06,5.77-4.54,8.69c-0.56,1.1-0.98,2.28-1.45,3.43
	c-0.04,0.11,0.03,0.29,0.1,0.4c0.15,0.25,0.42,0.24,0.62,0.13c0.27-0.14,0.57-0.32,0.71-0.56c1.21-2.05,2.88-3.84,3.45-6.25
	c0.09-0.36,0.3-0.73,0.55-1.01c1.19-1.35,1.95-3,2.98-4.46c0.54-0.76,1.06-1.56,1.73-2.19c1.08-1.02,2.05-2.1,2.69-3.47
	c0.44-0.93,1.22-1.66,2.09-2.16c1.09-0.62,2-1.34,2.87-2.27c0.93-0.99,2.13-1.79,3.38-2.46c1.22-0.65,2.57-1.18,3.32-2.49
	c0.31-0.54,0.94-0.01,1.25-0.28c0.84-0.75,1.96-0.94,2.86-1.56c2-1.37,4.35-1.98,6.56-2.89c0.76-0.31,1.41-0.1,2.18,0.3
	c1.16,0.6,2.48,0.9,3.42,1.88c0.67,0.69,1.03,1.54,0.67,2.51c-0.44,1.18-0.61,2.35-0.63,3.63c-0.02,1.35-0.49,2.71-0.9,4.03
	c-0.52,1.67-1.2,3.29-1.74,4.95c-0.45,1.37-0.87,2.71-1.67,3.97c-0.63,0.99-0.67,2.35-1.19,3.49c-0.93,2.04-1.26,4.26-1.9,6.4
	c-0.28,0.95-0.9,1.77-0.95,2.83c-0.03,0.69-0.26,1.38-0.18,2.08c0.09,0.82,0.03,1.53-0.65,2.12c-0.2,0.17-0.35,0.59-0.3,0.84
	c0.25,1.15-0.28,2.14-0.55,3.18c-0.26,0.99-0.32,1.99-0.41,3c-0.08,0.88,0.02,1.71,0.4,2.49c0.3,0.63,0.54,1.24,0.49,1.99
	c-0.04,0.67,0.12,1.39,0.75,1.89c0.23,0.18,0.48,0.48,0.52,0.75c0.15,1.01,1.03,1.72,1.14,2.71c0.08,0.74,0.43,1.28,0.85,1.86
	c0.58,0.82,1.5,1.38,1.83,2.4c0.06,0.18,0.32,0.34,0.52,0.43c1.03,0.46,1.82,1.18,2.45,2.1c0.13,0.19,0.29,0.41,0.48,0.5
	c1.36,0.6,2.43,1.57,3.41,2.64c0.05,0.05,0.14,0.12,0.19,0.11c1.62-0.29,2.48,1.09,3.71,1.66c1.27,0.59,2.62,0.98,3.98,1.29
	c0.41,0.09,0.73,0.26,0.96,0.59c0.39,0.56,0.92,0.58,1.45,0.33c0.7-0.32,1.29-0.24,1.98,0.1c1.78,0.87,3.68,1.23,5.66,1.01
	c0.56-0.06,1.11-0.06,1.54,0.36c0.8,0.8,1.78,0.58,2.62,0.28c0.61-0.21,1.14-0.42,1.78-0.28c0.22,0.05,0.52,0.09,0.69-0.02
	c1.45-0.87,3.05-0.34,4.56-0.57c3.84-0.59,7.64-1.35,11.15-3.17c1.91-1,3.72-2.19,5.77-2.91c0.28-0.1,0.51-0.35,0.75-0.55
	c1.64-1.4,3.31-2.72,5.15-3.88c1.55-0.99,2.93-2.29,4.48-3.34c3.4-2.3,6.28-5.1,8.5-8.57c1.27-1.98,2.26-4.06,2.7-6.41
	c0.27-1.45,0.83-2.83,1.49-4.17c1.77-3.59,2.21-7.42,1.98-11.37c-0.14-2.4-1.05-4.56-2.16-6.57c-0.68-1.23-1.78-2.36-3.38-2.67
	c-1.08-0.21-2.06-0.66-2.92-1.36c-0.64-0.52-1.4-0.71-2.18-0.77c-2.32-0.19-4.65-0.35-6.97-0.48c-0.77-0.04-1.56,0.05-2.33,0.13
	c-0.53,0.06-1.02,0.27-1.45,0.83c1.58,0.2,3.05,0.34,4.5,0.57c1.3,0.21,2.59,0.52,3.88,0.8c0.22,0.05,0.44,0.15,0.63,0.28
	c0.1,0.07,0.17,0.26,0.15,0.38c-0.02,0.1-0.19,0.24-0.3,0.25c-0.85,0.06-1.71,0.11-2.57,0.12c-2.41,0.02-4.82,0.03-7.23,0
	c-2.64-0.04-5.27,0.24-7.9,0.39c-0.55,0.03-1.06,0.12-1.59,0.32c-3.41,1.31-6.84,2.59-10.26,3.88c-0.36,0.14-0.72,0.33-1.1,0.39
	c-2.83,0.46-5.27,1.87-7.73,3.21c-1.5,0.82-2.96,1.74-4.47,2.54c-3.39,1.79-6.38,4.11-9.11,6.79c-0.5,0.49-1.05,0.93-1.57,1.4
	c-0.4,0.35-0.74,0.91-1.38,0.62c-0.4-0.18-0.69-1.63-0.51-2.15c0.21-0.61,0.66-1.05,1.1-1.49c2.81-2.8,5.57-5.64,8.68-8.12
	c1.09-0.87,2.02-1.96,3.13-2.8c3.03-2.31,6.08-4.58,9.45-6.38c0.48-0.25,0.94-0.61,1.45-0.7c1.59-0.29,2.79-1.29,4.07-2.13
	c0.99-0.65,1.96-1.22,3.13-1.48c0.82-0.19,1.63-0.53,2.4-0.9c2.88-1.39,5.93-2.3,8.95-3.28c2.05-0.67,4.17-1,6.37-1.03
	c1.05-0.01,2.15-0.21,3.23-0.29c1.64-0.12,3.28-0.03,4.85,0.42c2.73,0.79,5.59,1.09,8.04,2.86c1.74,1.26,3.01,2.88,4.37,4.46
	c0.2,0.23,0.31,0.54,0.67,0.55c0.32-2.44-0.17-4.76-1.09-7.02c-0.09-0.21-0.26-0.42-0.26-0.63c-0.01-0.19,0.12-0.41,0.26-0.57
	c0.05-0.06,0.32-0.01,0.42,0.08c0.71,0.61,1.35,1.29,1.62,2.21c0.79,2.68,1.61,5.35,1.35,8.2c0.55,1.98,0.45,4.01,0.48,6.02
	c0.03,1.39,0.17,2.8-0.31,4.18c-0.15,0.42-0.07,0.92-0.07,1.39c-0.01,2.03-0.44,3.99-0.83,5.97c-0.22,1.13-0.45,2.26-0.67,3.4
	c-0.04,0.23,0.03,0.53-0.09,0.69c-0.88,1.12-0.69,2.47-0.87,3.75c-0.14,1.04-0.09,2.18-1.19,2.88c-0.26,0.17-0.29,0.7-0.41,1.07
	c-0.32,0.95-0.53,1.95-1.32,2.68c-0.16,0.14-0.22,0.39-0.31,0.6c-0.46,1.04-0.79,2.08-1.62,3c-0.68,0.75-1.17,1.77-1.75,2.66
	c-0.6,0.94-1.12,1.96-1.79,2.89c-2.04,2.85-4.36,5.49-6.68,8.11c-1.43,1.62-3.19,2.97-4.89,4.33c-1.69,1.35-3.39,2.71-5.21,3.91
	c-1.02,0.67-1.84,1.64-2.95,2.25c-2.31,1.26-4.53,2.7-6.91,3.8c-2.23,1.04-4.55,1.9-6.89,2.7c-2.35,0.8-4.75,1.46-7.1,2.23
	c-1.2,0.39-2.56,0.56-3.5,1.59c-0.23,0.25-0.52,0.33-0.85,0.25c-0.8-0.2-1.53,0.01-2.28,0.3c-2.45,0.93-4.95,1.19-7.52,0.49
	c-0.51-0.14-1.1-0.18-1.61-0.08c-2.44,0.47-4.79-0.02-7.14-0.56c-1.74-0.4-3.42-0.93-5.26-0.95c-1.79-0.02-3.55-0.77-4.91-1.93
	c-1.08-0.92-2.23-1.73-3.43-2.37c-2.67-1.42-4.74-3.5-6.72-5.68c-1.02-1.12-1.78-2.55-2.41-3.95c-0.38-0.87-0.82-1.69-1.38-2.4
	c-0.61-0.77-1.01-1.61-1.14-2.52c-0.17-1.22-0.5-2.38-0.81-3.57c-0.54-2.11-0.64-4.27-0.02-6.4c0.23-0.79,0.09-1.54-0.01-2.31
	c-0.27-2.16-0.54-4.32,0.08-6.46c0.23-0.79-0.26-1.49-0.06-2.29c0.42-1.72,0.71-3.48,1.03-5.22c0.1-0.53,0.13-1.07,0.19-1.61
	c0.17-0.13,0.33-0.31,0.15-0.49C342.63,533.37,342.46,533.56,342.32,533.71z M265.47,553.65c0.81,0.05,1.25-0.76,2-0.69
	c0.82,0.08,1.49-0.16,2.03-0.84c0.51-0.63,1.56-0.33,2.04-1.01c0.89-1.27,2.33-1.75,3.6-2.36c2.43-1.17,4.53-2.63,6.07-4.87
	c0.04-0.06,0.12-0.11,0.16-0.17c1.17-1.71,2.64-3.28,2.75-5.53c0.04-0.73,0.03-0.77-0.66-0.68c-2.48,0.33-4.68,1.6-7.09,2.14
	c-0.22,0.05-0.46,0.18-0.59,0.36c-0.58,0.76-1.17,1.41-2.25,1.46c-0.3,0.01-0.65,0.41-0.87,0.72c-0.47,0.64-0.98,1.21-1.7,1.55
	c-0.39,0.18-0.6,0.52-0.66,0.91c-0.18,1.16-1.03,1.86-1.71,2.69c-0.68,0.82-1.73,1.35-1.96,2.54c-0.06,0.31-0.41,0.43-0.72,0.53
	c-0.9,0.31-1.21,1.12-1.49,1.9C264.15,553.03,264.75,553.7,265.47,553.65z"/>
<path class="st0" d="M360.51,453.43c-0.58,0.68-1.15,1.27-2.02,1.52c-0.71,0.2-1.03,0.95-1.39,1.53c-0.88,1.38-2.16,2.14-3.55,2.9
	c-1.34,0.74-2.9,1.08-4.03,2.2c-0.16,0.16-0.37,0.33-0.58,0.37c-2.6,0.4-4.33,2.31-6.38,3.66c-0.84,0.55-1.71,0.75-2.64,0.78
	c-0.69,0.02-1.22,0.02-1.25,0.94c-0.01,0.49-0.47,0.75-0.94,0.93c-1.02,0.38-2.03,0.8-3.04,1.2c-0.21,0.08-0.45,0.27-0.64,0.24
	c-2.23-0.37-3.21,1.44-4.56,2.59c-0.17,0.14-0.23,0.52-0.39,0.55c-1.45,0.25-2.13,1.48-3.11,2.33c-1.17,1.01-2.69,1.41-4.1,1.48
	c-1.23,0.06-2.55-0.44-3.66-1.22c-0.83-0.59-0.96-1.57-1.43-2.35c-0.11-0.18-0.13-0.49-0.05-0.69c0.62-1.43,0.37-3.03,1.01-4.48
	c1.56-3.51,3.41-6.79,6.22-9.49c0.76-0.73,1.46-1.61,1.83-2.67c0.15-0.43,0.45-0.81,0.7-1.21c2.16-3.49,3.07-7.42,3.78-11.38
	c0.22-1.25,0.85-2.56,0.18-3.88c0.73-1.12,0.36-2.41,0.55-3.62c0.38-2.43,0.83-4.88,0.01-7.32c0.59-1-0.4-2.02,0.18-3.13
	c0.57-1.09,0.26-2.45,0.06-3.67c-0.33-1.92-0.46-3.85-0.14-5.77c0.14-0.81-0.09-1.6-0.35-2.27c-0.41-1.07-0.45-2.12-0.43-3.2
	c0.03-2.04-0.15-4.04-0.91-5.97c-0.45-1.16-0.2-2.41-0.4-3.61c-0.25-1.54-0.55-3.08-1.08-4.52c-1.13-3.07-1.35-6.38-2.58-9.42
	c-0.17-0.42-0.16-0.92-0.19-1.38c-0.06-1.28-0.23-1.87-0.94-3.08c-0.04-0.07-0.1-0.14-0.11-0.21c-0.11-1.76-1.41-2.87-2.3-4.2
	c-0.04-0.06-0.11-0.12-0.14-0.18c-0.45-1.07-0.71-2.29-1.4-3.16c-0.71-0.88-1.78-1.52-2.47-2.46c-0.69-0.93-1.3-1.93-1.8-2.97
	c-0.34-0.69-0.69-1.37-1.03-2.06c-0.44-0.9-0.69-1.9-0.41-2.92c0.44-1.6,0.37-3.23,0.29-4.87c-0.03-0.7-0.03-1.4-0.01-2.1
	c0.05-1.3,0.39-2.47,1.59-3.2c0.41-0.25,0.7-0.59,0.97-0.99c0.16-0.25,0.42-0.53,0.69-0.6c1.88-0.5,3.44-1.71,5.22-2.36
	c1.14-0.41,2.38-0.55,3.41-1.29c0.14-0.1,0.54-0.09,0.64,0.02c0.81,0.9,2.01,0.72,3,1.04c2,0.65,3.6,1.59,4.58,3.51
	c0.31,0.6,0.64,1.26,1.47,1.37c0.18,0.02,0.42,0.28,0.47,0.47c0.32,1.13,1.24,1.67,2.02,2.43c1.1,1.07,1.95,2.38,3.31,3.21
	c0.29,0.18,0.41,0.65,0.58,1c0.2,0.42,0.46,0.76,0.8,1.1c1.2,1.2,2.18,2.43,2.21,4.38c0.02,1.4,0.01,2.72-0.34,4.06
	c-0.27,1.05-0.44,2.13-0.59,3.21c-0.05,0.36-0.02,0.98,0.18,1.09c0.98,0.53,0.73,1.52,0.85,2.28c0.26,1.56,0.93,2.96,1.48,4.4
	c0.5,1.3,0.94,2.61,1.21,3.99c0.1,0.53,0.28,1.05,0.46,1.56c0.73,2.14,1.25,4.33,1.37,6.6c0.02,0.39,0.02,0.79,0.13,1.16
	c0.77,2.72,0.76,5.53,0.87,8.32c0.07,1.8,0.19,3.56,1.14,5.16c0.08,0.13,0.19,0.3,0.16,0.42c-0.43,1.92,0.7,3.61,0.78,5.46
	c0.03,0.78,0.21,1.54-0.11,2.3c-0.09,0.21-0.14,0.48-0.09,0.69c0.52,2.09-0.32,4.14-0.2,6.21c0.14,2.46-0.63,4.76-1.09,7.11
	c-0.09,0.46-0.2,0.91-0.33,1.36c-0.67,2.33-1.44,4.61-3.08,6.49c-0.77,0.88-1.42,1.85-2.14,2.77c-0.34,0.43-0.69,0.85-0.74,1.43
	c-0.01,0.14,0.02,0.29,0.07,0.43c0.06,0.18,0.22,0.22,0.37,0.08c1.49-1.42,3.67-1.1,5.35-2.12c0.61-0.37,1.5-0.31,2.23-0.38
	c0.86-0.08,1.46-0.33,2.02-0.92c0.55-0.57,1.16-1.09,2.01-1.03c2.42,0.17,4-1.24,5.13-3.06c0.74-1.18,1.6-1.59,2.85-1.58
	c0.86,0.01,1.72-0.02,2.58,0c1.08,0.03,1.79-0.55,2.19-1.45c0.65-1.48,1.47-2.85,2.3-4.24c0.76-1.26,1.29-2.66,1.87-4.01
	c0.62-1.43,1.19-2.88,1.76-4.33c0.29-0.75,0.59-1.42,1.54-1.52c0.47-0.05,0.94-0.35,1.08-0.81c0.34-1.14,1.35-1.21,2.21-1.43
	c1.89-0.46,3.64-1.2,5.32-2.19c1.11-0.65,2.28-1.17,3.68-0.87c0.64,0.14,1.44,0.25,2-0.33c0.72-0.75,1.55-0.52,2.4-0.39
	c0.93,0.15,1.73,0.65,2.67,0.8c1.43,0.24,2.83,0.71,4.23,1.11c0.84,0.24,1.66,0.55,1.79,1.6c0.01,0.08,0.02,0.18,0.07,0.21
	c2.29,1.46,0.69,3.1,0.19,4.67c-0.11,0.35-0.47,0.61-0.67,0.94c-0.64,1.07-1.29,2.13-1.21,3.46c0.06,0.97-0.53,1.77-0.81,2.65
	c-0.74,2.38-1.55,4.73-2.65,6.97c-0.63,1.27-0.97,2.62-1.04,4.04c-0.02,0.46-0.07,0.94-0.23,1.36c-0.58,1.52-0.22,3.09-0.28,4.63
	c-0.01,0.33,0.14,0.66,0.43,0.77c0.92,0.35,1.73,1,2.86,0.67c0.88-0.26,1.86-0.15,2.77-0.35c2.75-0.59,4.88-1.96,5.8-4.8
	c0.2-0.61,0.33-1.17,0.13-1.81c-0.64-2.08-0.28-4.12,0.38-6.11c0.34-1.03,0.92-1.96,1.68-2.79c1.47-1.6,2.91-3.21,4.71-4.44
	c0.33-0.22,0.63-0.48,1.03-0.49c0.75-0.03,1.37-0.29,1.76-0.96c0.22-0.37,0.58-0.44,0.97-0.55c2.69-0.73,5.38-1.49,8.06-2.25
	c0.45-0.13,0.9-0.26,1.32-0.46c0.99-0.45,1.66-1.27,1.37-1.61c-0.55-0.63-1.48-0.95-2.09-0.72c-1.3,0.48-2.46,0.02-3.67-0.11
	c-2.07-0.22-4.13-0.59-6.22-0.63c-0.48-0.01-0.98,0.05-1.33-0.29c-1.32-1.29-3-2.42-3.3-4.37c-0.25-1.63-0.85-3.13-1.22-4.71
	c-0.34-1.44-0.14-2.92,0.17-4.31c0.16-0.74,0.89-1.48,1.55-1.96c1.29-0.92,2.25-2.14,3.29-3.28c0.15-0.17,0.31-0.49,0.46-0.49
	c1.32,0.02,2.21-1.08,3.44-1.26c0.31-0.04,0.58-0.08,0.9-0.03c2.46,0.42,4.82,1.13,7.1,2.16c1.9,0.85,3.66,2.12,5.83,2.28
	c1.31,1.3,3.12,1.59,4.73,2.24c2.6,1.05,4.27,3.06,5.86,5.16c1.21,1.6,2.56,2.88,4.47,3.59c1.79,0.67,2.92,2.28,4.37,3.43
	c0.46,0.37,0.82,0.91,1.3,1.31c0.28,0.23,0.57,0.62,0.6,0.97c0.18,2.09,1.44,3.76,2.24,5.59c0.96,2.19,0.62,4.24-0.02,6.35
	c-0.06,0.21-0.23,0.44-0.41,0.55c-1.5,0.92-2.28,2.48-3.4,3.74c-1.96,2.2-4.1,4.23-7.3,4.49c-0.46,0.04-0.89,0.29-1.35,0.36
	c-1.09,0.17-2.16,0.21-3.19-0.33c-1.1-0.57-1.27-1.43-0.37-2.38c0.64-0.68,1.33-1.31,2.16-1.77c1.15-0.64,2.28-1.31,3.41-1.99
	c0.71-0.44,1.06-1.03,0.96-1.95c-0.14-1.31-0.72-2.54-0.67-3.88c0.01-0.32-0.2-0.58-0.49-0.74c-1.5-0.84-2.89-1.82-4.2-2.94
	c-0.63-0.54-1.36-0.77-2.04,0.03c-0.09,0.1-0.31,0.22-0.4,0.18c-1.21-0.59-2.22,0.38-3.32,0.41c-1.1,0.03-2.14,0.31-3.17,0.57
	c-2.7,0.69-5.3,1.54-7.51,3.46c-1.09,0.95-2.26,1.87-3.42,2.77c-0.68,0.53-0.99,1.21-0.8,2.05c0.15,0.7,0.07,1.39,0.05,2.09
	c-0.07,2.23,1.56,4.72,3.68,5.72c0.35,0.17,0.72,0.33,1.03,0.56c2.32,1.71,5,2.76,7.48,4.18c0.58,0.33,1.18,0.34,1.77,0.52
	c1.32,0.39,2.65,0.77,4,1.04c0.83,0.17,1.7,0.12,2.56-0.07c1.31-0.3,2.61-0.39,3.92,0.04c0.61,0.2,1.27,0.24,1.83-0.07
	c0.74-0.42,1.53-0.32,2.28-0.29c1.62,0.07,3.23,0.27,4.85,0.39c0.54,0.04,1.09,0.05,1.63,0.01c0.46-0.03,1.02-0.26,1.27,0.23
	c0.23,0.44-0.14,0.92-0.39,1.29c-0.76,1.11-1.3,2.29-1.55,3.62c-0.14,0.74-0.56,1.28-1.42,1.31c-0.23,0.01-0.62,0-0.66,0.12
	c-0.57,1.34-1.85,0.91-2.83,1.14c-1.65,0.39-3.27,1.03-5.02,0.83c-0.15-0.02-0.32,0.03-0.45,0.1c-2.11,1.22-4.42,0.59-6.64,0.73
	c-0.15,0.01-0.33,0.01-0.46-0.04c-1.1-0.46-2.34,0.48-3.37-0.24c-0.96-0.68-2.1-0.52-3.12-0.89c-1.32-0.48-2.71-0.71-4.11-0.79
	c-1.02-0.06-1.99-0.32-2.92-0.75c-1.46-0.67-2.73-1.83-4.5-1.67c-1-0.85-2.22-1.06-3.47-1.14c-0.31-0.02-0.64-0.12-0.93-0.04
	c-1.68,0.45-3.44,0.2-5.1,0.52c-1.8,0.35-3.56,0.09-5.34,0.28c-1.66,0.18-3.36-0.58-5.01,0.17c-0.12,0.05-0.31-0.02-0.46-0.05
	c-2.42-0.47-4.91-0.58-7.27-1.4c-0.5-0.17-1.05-0.26-1.57-0.28c-2.01-0.1-3.11-1.55-4.28-2.88c-0.35-0.41-0.59-0.91-0.92-1.34
	c-0.41-0.53-0.59-0.5-1.11-0.03c-2.83,2.54-5.46,5.32-8.72,7.34c-2,1.24-4.07,2.26-6.39,2.77c-0.75,0.16-1.43,0.67-2.17,0.8
	C365.77,458.45,362.35,457.97,360.51,453.43z M387.41,438.16c0.04-1.14-0.21-1.34-1.1-1.22c-0.87,0.11-1.59,0.63-2.4,0.84
	c-2.35,0.61-4.53,1.52-6.43,3.06c-1.39,1.13-2.74,2.33-3.78,3.78c-0.55,0.76-1.1,1.51-1.79,2.13c-1.73,1.53-2.53,3.71-3.85,5.52
	c-0.24,0.32,0.08,0.76,0.53,0.81c0.15,0.02,0.34,0.09,0.46,0.03c1.04-0.49,2.07-0.97,3.24-1.05c0.71-1.03,2.08-1.03,2.91-1.86
	c0.94-0.94,2.15-1.47,3.27-2.07c1.2-0.64,2.22-1.72,3.69-1.84c0.34-0.03,0.53-0.28,0.69-0.56c0.28-0.48,0.72-0.8,1.16-1.12
	c1.07-0.8,2.14-1.69,2.63-2.91C387.1,440.51,387.2,439.17,387.41,438.16z M343.78,440.05c0.07-0.03,0.17-0.04,0.21-0.09
	c1.24-1.42,2.31-2.93,2.69-4.83c0.15-0.76,0.35-1.51,0.52-2.27c0.92-4.02,1.84-8.03,1.76-12.19c-0.01-0.44-0.02-0.87-0.03-1.31
	c-0.21,0.4-0.41,0.79-0.61,1.19c-0.03,0.07-0.01,0.15-0.03,0.23c-1.22,5.06-2.43,10.12-3.67,15.17c-0.3,1.21-0.71,2.38-1.05,3.58
	c-0.04,0.13,0.02,0.3,0.05,0.44C343.63,440.01,343.72,440.03,343.78,440.05z M414.97,449.45c-1.52-1.47-3.25-2.56-4.24-4.38
	c-0.2-0.36-0.65-0.37-1-0.06c-0.12,0.1-0.25,0.19-0.35,0.31c-1.44,1.72-3.04,3.29-4.73,4.76c-0.07,0.06-0.09,0.33-0.02,0.39
	c0.1,0.09,0.29,0.12,0.44,0.1c2.68-0.28,5.33-0.81,8.06-0.65C413.68,449.95,414.27,449.63,414.97,449.45z"/>
<path class="st0" d="M380.89,218.43c-0.25-2.81-0.46-5.13-0.68-7.46c-0.01-0.15,0.01-0.34-0.07-0.46c-1.09-1.51-0.81-3.28-0.93-4.95
	c-0.46-6.45-0.89-12.9-1.3-19.36c-0.11-1.63-0.1-3.27-0.18-4.91c-0.16-3.19-0.47-6.35-1.13-9.48c-0.16-0.75-0.04-1.55-0.07-2.32
	c-0.09-2.48-0.37-4.95-0.1-7.43c0.42-3.84,0.41-7.74,1.44-11.51c0.43-1.57,0.8-3.16,1.12-4.76c0.15-0.76,0.24-1.56,0.15-2.32
	c-0.14-1.25,0-2.49,0.05-3.72c0.07-1.75,0.81-2.69,2.48-3.15c0.44-0.12,0.92-0.19,1.38-0.16c0.27,0.02,0.71,0.26,0.74,0.45
	c0.16,0.9,0.83,1.66,0.6,2.68c-0.38,1.69-0.18,3.41-0.12,5.12c0.08,2.49,0.18,4.97,0.21,7.46c0.03,2.87-0.02,5.73,0,8.6
	c0.01,1.39,0.14,2.79,0.14,4.18c0,4.12-0.05,8.24-0.04,12.36c0,1.38-0.57,2.76-0.03,4.14c0.02,0.06-0.04,0.15-0.06,0.22
	c-1.32,4.19-1.5,8.58-2.06,12.89c-0.63,4.86-1.27,9.74-1.36,14.66c-0.04,2.1-0.38,4.18-0.06,6.29
	C381.13,216.3,380.32,217.07,380.89,218.43z"/>
<path class="st0" d="M174.78,513.96c0,0.69,0,1.08,0,1.47c-0.01,0.57-0.19,1.07-0.66,1.43c-1.11,0.85-1.93,1.91-2.71,3.08
	c-0.82,1.23-1.83,2.57-3.62,2.52c-1.42-0.04-2.67-0.31-3.61-1.67c-0.89-1.29-1.81-2.51-2.11-4.09c-0.06-0.3-0.22-0.7-0.1-0.91
	c0.58-1,0.61-2.01,0.31-3.1c-0.1-0.37,0.11-0.8,0.48-0.99c1.17-0.59,1.56-1.72,1.83-2.82c0.28-1.16,1.11-1.84,1.82-2.66
	c0.22-0.25,0.5-0.38,0.82-0.38c0.93-0.02,1.87-0.12,2.78,0.23c0.67,0.26,1.15,0.59,1.45,1.35c0.45,1.13,1.15,2.15,2.01,3.05
	C174.46,511.52,175.28,512.68,174.78,513.96z"/>
<path class="st0" d="M386.94,123.49c0.52,1.9-0.45,3.26-1.44,4.65c-0.71,1-1.75,1.71-2.24,2.92c-0.27,0.66-0.98,1.17-1.55,1.68
	c-1.43,1.27-1.53,1.26-1.99-0.49c-0.18-0.71-0.47-1.28-0.95-1.81c-0.77-0.86-1.47-1.79-2.2-2.69c-0.38-0.47-0.44-0.98-0.2-1.52
	c0.63-1.5,1.19-3.01,1.55-4.6c0.25-1.09,1.16-1.76,2.04-2.1c2.43-0.93,4.83-0.33,6.35,1.39C387,121.72,387.07,122.58,386.94,123.49z
	"/>
<path class="st0" d="M380.74,219.72c0.49,1.88,0.61,3.65,0.61,5.44c0.01,5.29,0.01,10.59-0.03,15.88c-0.01,1.47-0.14,2.95-0.27,4.42
	c-0.12,1.4-0.14,2.8-0.03,4.2c0.2,2.48,0.29,4.95-0.01,7.43c-0.1,0.8,0.08,1.53,0.27,2.29c0.14,0.55,0.02,1.07-0.53,1.42
	c-0.57,0.37-1.05,0.35-1.41-0.2c-0.69-1.04-1.2-2.09-1.19-3.44c0.01-2.09-0.38-4.17-0.25-6.28c0.18-2.95,0.22-5.91,0.67-8.83
	c0.58-3.69,0.55-7.44,0.92-11.15c0.28-2.78,0.66-5.56,0.59-8.37C380.08,221.59,380.25,220.69,380.74,219.72z"/>
<path class="st0" d="M383.68,465.47c-0.02,0.15-0.09,0.31-0.07,0.46c0.07,0.52,0.37,1.11,0.23,1.55c-0.23,0.71-1.1,1.04-1.41,1.79
	c-0.09,0.23-0.47,0.39-0.75,0.49c-0.66,0.22-1.33,0.45-2.01,0.56c-1.37,0.21-2.66,0.24-4-0.54c-1.53-0.89-2.82-1.85-3.47-3.55
	c-0.16-0.41-0.19-0.77,0.07-1.09c1.33-1.7,2.65-3.39,4.54-4.58c1.26-0.79,2.48-0.73,3.77-0.28c0.86,0.3,1.51,0.85,1.6,1.82
	c0.05,0.59,0.19,1.11,0.72,1.38C383.77,463.94,383.82,464.65,383.68,465.47z"/>
<path class="st0" d="M170.37,533.37c-1.38,0.01-2.61-0.29-3.47-1.53c-0.28-0.41-0.43-0.81-0.46-1.29c-0.04-0.79,0.15-1.14,0.85-1.49
	c1.76-0.89,4.13-0.11,5.04,1.64c0.66,1.28-0.07,2.56-1.5,2.64C170.69,533.35,170.53,533.36,170.37,533.37z"/>
<g>
</g>
<g>
</g>
<g>
</g>
<g>
</g>
<g>
</g>
<g>
</g>
</svg>
